<svg width="30" height="30" viewBox="0 0 30 30" fill="none" xmlns="http://www.w3.org/2000/svg">
<path d="M27.6622 19.4862L27.6621 19.4858L27.6605 19.4788L27.6604 19.4784L26.3734 13.7639L26.3733 13.7634L26.3722 13.7588L26.3721 13.7582L24.4142 5.06495C24.5986 4.65332 24.7017 4.19755 24.7017 3.71817C24.7017 1.89551 23.2192 0.412891 21.3965 0.412891C18.566 0.412891 15.8179 0.968015 13.2292 2.06293C10.7307 3.1197 8.48728 4.63207 6.56163 6.55761L6.56163 6.55761C4.63598 8.48326 3.1236 10.7267 2.06684 13.2253C0.971921 15.814 0.416797 18.5621 0.416797 21.3926C0.416797 23.2153 1.89935 24.6979 3.72213 24.6979C4.20526 24.6979 4.66454 24.5933 5.07876 24.4061L8.85781 25.2589V27.5785C8.85781 28.6861 9.75858 29.5868 10.8661 29.5868C11.9737 29.5868 12.8745 28.6861 12.8745 27.5785V26.8644C12.8745 26.7923 12.9334 26.7334 13.0055 26.7334C13.3588 26.7334 13.6953 26.6184 13.9695 26.4126L27.86 29.5476L27.8601 29.5476C28.3348 29.6546 28.8248 29.5131 29.169 29.1689C29.5133 28.8248 29.6552 28.3349 29.5482 27.8601L29.3775 27.8986L29.5482 27.8601L27.6622 19.4862ZM3.42622 13.8002L3.26504 13.7321L3.42622 13.8002C4.40854 11.4776 5.81448 9.39215 7.6053 7.60133C9.39611 5.81052 11.4816 4.40464 13.8042 3.42231L13.736 3.26113L13.8042 3.42231C16.2098 2.40484 18.764 1.88887 21.3965 1.88887C22.405 1.88887 23.2258 2.70967 23.2258 3.71823C23.2258 4.72678 22.405 5.54758 21.3965 5.54758C18.0881 5.54758 14.9156 6.56148 12.2234 8.47933L12.2172 8.48373L12.2114 8.48864C11.7233 8.90442 10.9523 9.58871 10.2238 10.2921C9.5015 10.9895 8.80584 11.7199 8.47753 12.2274C6.56344 14.918 5.55149 18.0875 5.55149 21.3925C5.55149 22.4011 4.73069 23.2219 3.72213 23.2219C2.71358 23.2219 1.89278 22.4011 1.89278 21.3925C1.89278 18.7601 2.40874 16.2059 3.42622 13.8002ZM24.7369 21.2151C25.3349 21.2151 25.9199 21.0838 26.4533 20.8362L28.086 28.0854L20.85 26.4523C21.1404 25.8843 21.2941 25.2519 21.2941 24.5982C21.2941 22.3489 19.4646 20.5193 17.2153 20.5193C14.9661 20.5193 13.1365 22.3489 13.1365 24.5982C13.1365 24.7751 13.1483 24.9506 13.1708 25.124C13.1499 25.1483 13.1304 25.1744 13.1125 25.2021C13.0874 25.2371 13.0479 25.2573 13.0055 25.2573C12.1193 25.2573 11.3985 25.9781 11.3985 26.8644V27.5785C11.3985 27.8718 11.1595 28.1108 10.8661 28.1108C10.5728 28.1108 10.3338 27.8718 10.3338 27.5785V23.0235C10.3338 21.5152 9.10706 20.2885 7.59877 20.2885H7.06978C7.26709 17.6915 8.15979 15.2191 9.68236 13.08L9.68243 13.0801L9.68556 13.0754C9.78554 12.9249 9.98537 12.6919 10.2529 12.4068C10.5179 12.1244 10.8417 11.7987 11.183 11.4653C11.862 10.802 12.6067 10.1115 13.088 9.67559C15.5273 7.94049 18.3997 7.02362 21.3964 7.02356C22.0695 7.02356 22.6959 6.82067 23.2185 6.47385L24.7013 13.0576C22.4684 13.0768 20.658 14.8989 20.658 17.1363C20.658 19.3855 22.4876 21.2151 24.7369 21.2151ZM14.9067 10.827C12.6575 10.827 10.8279 12.6566 10.8279 14.9058C10.8279 17.155 12.6574 18.9845 14.9067 18.9845C17.1559 18.9845 18.9855 17.155 18.9855 14.9058C18.9855 12.6566 17.1558 10.827 14.9067 10.827ZM14.9067 17.5086C13.4716 17.5086 12.3039 16.3408 12.3039 14.9058C12.3039 13.4707 13.4716 12.303 14.9067 12.303C16.3417 12.303 17.5095 13.4707 17.5095 14.9058C17.5095 16.3408 16.3417 17.5086 14.9067 17.5086ZM26.1169 19.3425C25.7056 19.6 25.2283 19.739 24.7369 19.739C23.3018 19.739 22.134 18.5713 22.134 17.1362C22.134 15.7012 23.3018 14.5334 24.7369 14.5334C24.8377 14.5334 24.9381 14.5393 25.0376 14.5509L26.1169 19.3425ZM8.85776 23.0235V23.7458L6.4811 23.2094C6.76111 22.7857 6.94626 22.2939 7.00586 21.7644H7.59871C8.29278 21.7644 8.85776 22.3294 8.85776 23.0235ZM14.6125 24.5982C14.6125 23.1631 15.7802 21.9954 17.2153 21.9954C18.6503 21.9954 19.8181 23.1631 19.8181 24.5982C19.8181 25.1475 19.648 25.6716 19.3338 26.1102L14.6525 25.0536C14.626 24.9041 14.6125 24.7519 14.6125 24.5982Z" fill="#509E2F" stroke="#509E2F" stroke-width="0.35"/>
</svg>
