<svg width="30" height="30" viewBox="0 0 30 30" fill="none" xmlns="http://www.w3.org/2000/svg">
<mask id="path-1-outside-1" maskUnits="userSpaceOnUse" x="1.3042" y="-0.809814" width="27" height="31" fill="black">
<rect fill="white" x="1.3042" y="-0.809814" width="27" height="31"/>
<path fill-rule="evenodd" clip-rule="evenodd" d="M27.1634 17.9204C27.6976 17.3677 27.9142 16.5538 27.7615 15.5926C27.5127 14.0256 26.3149 12.1527 24.5574 10.5826C22.7923 9.00558 20.6079 7.86328 18.3275 7.31033C18.3428 7.18003 18.3512 7.04839 18.3512 6.91516C18.3512 5.37146 17.3051 4.06827 15.8848 3.67495C16.115 2.25205 16.9895 1.81014 17.0322 1.78954C17.4509 1.58956 17.6285 1.08797 17.4286 0.669012C17.2288 0.250053 16.7271 0.0724325 16.308 0.272245C16.1062 0.368411 14.4752 1.21986 14.191 3.65023C14.1229 3.66688 14.0551 3.68495 13.9883 3.7058C11.9558 0.233325 7.61919 0.19037 7.42316 0.19037C6.9589 0.19037 6.58256 0.56671 6.58256 1.03098C6.58256 1.13076 6.59811 3.10199 7.64122 5.01479C5.26683 5.57556 3.58436 7.05436 3.5013 7.12842C3.32251 7.28788 3.2202 7.51611 3.22012 7.75576C3.22004 7.99542 3.32234 8.22365 3.50114 8.38319C3.5567 8.43279 4.56526 9.32148 6.1082 9.98556C3.80115 11.7442 2.40994 13.8214 2.30966 15.7376C2.2683 16.5284 2.4629 17.2177 2.86337 17.736C2.30966 25.4122 8.88552 29.8025 15.0109 29.8025C21.1363 29.8025 27.1634 25.8777 27.1634 17.9204ZM14.9886 8.59646C15.9079 8.59646 16.6699 7.85101 16.6699 6.91524C16.6699 5.98813 15.9157 5.23402 14.9886 5.23402C14.0685 5.23402 13.3074 5.97998 13.3074 6.91524C13.3074 7.84554 14.0665 8.59646 14.9886 8.59646ZM12.5576 4.59424C11.9548 3.54969 10.9906 2.78306 9.68104 2.31299C9.19819 2.13957 8.73964 2.03433 8.36338 1.97044C8.50797 2.81677 8.8617 4.08188 9.72719 5.10944C10.2444 5.72401 10.89 6.18425 11.6538 6.48586C11.7451 5.771 12.0635 5.11045 12.5576 4.59424ZM8.74292 6.52503C9.60059 7.41423 10.6742 8.02266 11.9445 8.33948L11.9512 8.35431L11.9583 8.37005L11.9599 8.37344C10.7946 9.00558 9.52342 9.18135 8.16996 8.89227C7.07162 8.65824 6.12434 8.16254 5.48523 7.7561C6.23328 7.28074 7.40316 6.68466 8.74292 6.52503ZM8.16197 10.6017C5.19101 12.4938 4.0535 14.5843 3.9886 15.8254C3.96406 16.2946 4.08309 16.6542 4.32384 16.838C4.46674 16.9473 4.66084 17.0025 4.90142 17.0025C5.14049 17.0025 5.5191 16.0027 5.70092 15.5222C6.16023 14.3092 6.73176 12.7994 8.26386 12.7994C9.79595 12.7994 10.3676 14.3092 10.8268 15.5222C11.0086 16.0026 11.3871 17.0025 11.6263 17.0025C11.9381 17.0025 12.0929 16.8273 12.501 16.1806C12.9281 15.5037 13.5736 14.4806 14.9887 14.4806C16.4038 14.4806 17.0493 15.5037 17.4764 16.1806C17.8845 16.8273 18.0393 17.0025 18.3512 17.0025C18.5903 17.0025 18.9688 16.0027 19.1507 15.5222C19.61 14.3092 20.1815 12.7994 21.7136 12.7994C23.2457 12.7994 23.8172 14.3092 24.2764 15.5222C24.4584 16.0026 24.8369 17.0025 25.076 17.0025C25.3801 17.0025 25.6319 16.9544 25.8043 16.8634C25.9084 16.8085 26.2257 16.641 26.1012 15.8563C25.9544 14.9324 25.1776 13.3911 23.4373 11.8363C21.8181 10.3896 19.8016 9.35788 17.7071 8.89252C17.0836 9.74935 16.0766 10.2777 14.9887 10.2777C14.2986 10.2777 13.629 10.063 13.0711 9.67538C11.936 10.3652 10.72 10.7126 9.43667 10.7126C9.01872 10.7126 8.59363 10.6753 8.16197 10.6017ZM4.36553 18.6338C4.36553 25.3088 10.0003 28.1018 15.0109 28.0533C21.345 27.9919 25.6149 25.2054 25.6149 18.6478C25.443 18.6709 25.2639 18.6838 25.0759 18.6838C23.6757 18.6838 23.1369 17.2609 22.7041 16.1176C22.4426 15.4267 22.0844 14.4807 21.7135 14.4807C21.3426 14.4807 20.9845 15.4267 20.7229 16.1176C20.29 17.2609 19.7514 18.6838 18.3511 18.6838C17.0678 18.6838 16.4822 17.7556 16.0545 17.0778C15.6351 16.4131 15.4346 16.1619 14.9886 16.1619C14.5427 16.1619 14.3421 16.4131 13.9228 17.0778C13.4951 17.7556 12.9095 18.6838 11.6262 18.6838C10.2259 18.6838 9.68717 17.2609 9.25435 16.1176C8.99283 15.4267 8.63473 14.4807 8.26377 14.4807C7.8929 14.4807 7.53471 15.4267 7.2732 16.1176C6.84037 17.2609 6.30162 18.6838 4.90134 18.6838C4.71666 18.6838 4.53811 18.6657 4.36553 18.6338Z"/>
</mask>
<path fill-rule="evenodd" clip-rule="evenodd" d="M27.1634 17.9204C27.6976 17.3677 27.9142 16.5538 27.7615 15.5926C27.5127 14.0256 26.3149 12.1527 24.5574 10.5826C22.7923 9.00558 20.6079 7.86328 18.3275 7.31033C18.3428 7.18003 18.3512 7.04839 18.3512 6.91516C18.3512 5.37146 17.3051 4.06827 15.8848 3.67495C16.115 2.25205 16.9895 1.81014 17.0322 1.78954C17.4509 1.58956 17.6285 1.08797 17.4286 0.669012C17.2288 0.250053 16.7271 0.0724325 16.308 0.272245C16.1062 0.368411 14.4752 1.21986 14.191 3.65023C14.1229 3.66688 14.0551 3.68495 13.9883 3.7058C11.9558 0.233325 7.61919 0.19037 7.42316 0.19037C6.9589 0.19037 6.58256 0.56671 6.58256 1.03098C6.58256 1.13076 6.59811 3.10199 7.64122 5.01479C5.26683 5.57556 3.58436 7.05436 3.5013 7.12842C3.32251 7.28788 3.2202 7.51611 3.22012 7.75576C3.22004 7.99542 3.32234 8.22365 3.50114 8.38319C3.5567 8.43279 4.56526 9.32148 6.1082 9.98556C3.80115 11.7442 2.40994 13.8214 2.30966 15.7376C2.2683 16.5284 2.4629 17.2177 2.86337 17.736C2.30966 25.4122 8.88552 29.8025 15.0109 29.8025C21.1363 29.8025 27.1634 25.8777 27.1634 17.9204ZM14.9886 8.59646C15.9079 8.59646 16.6699 7.85101 16.6699 6.91524C16.6699 5.98813 15.9157 5.23402 14.9886 5.23402C14.0685 5.23402 13.3074 5.97998 13.3074 6.91524C13.3074 7.84554 14.0665 8.59646 14.9886 8.59646ZM12.5576 4.59424C11.9548 3.54969 10.9906 2.78306 9.68104 2.31299C9.19819 2.13957 8.73964 2.03433 8.36338 1.97044C8.50797 2.81677 8.8617 4.08188 9.72719 5.10944C10.2444 5.72401 10.89 6.18425 11.6538 6.48586C11.7451 5.771 12.0635 5.11045 12.5576 4.59424ZM8.74292 6.52503C9.60059 7.41423 10.6742 8.02266 11.9445 8.33948L11.9512 8.35431L11.9583 8.37005L11.9599 8.37344C10.7946 9.00558 9.52342 9.18135 8.16996 8.89227C7.07162 8.65824 6.12434 8.16254 5.48523 7.7561C6.23328 7.28074 7.40316 6.68466 8.74292 6.52503ZM8.16197 10.6017C5.19101 12.4938 4.0535 14.5843 3.9886 15.8254C3.96406 16.2946 4.08309 16.6542 4.32384 16.838C4.46674 16.9473 4.66084 17.0025 4.90142 17.0025C5.14049 17.0025 5.5191 16.0027 5.70092 15.5222C6.16023 14.3092 6.73176 12.7994 8.26386 12.7994C9.79595 12.7994 10.3676 14.3092 10.8268 15.5222C11.0086 16.0026 11.3871 17.0025 11.6263 17.0025C11.9381 17.0025 12.0929 16.8273 12.501 16.1806C12.9281 15.5037 13.5736 14.4806 14.9887 14.4806C16.4038 14.4806 17.0493 15.5037 17.4764 16.1806C17.8845 16.8273 18.0393 17.0025 18.3512 17.0025C18.5903 17.0025 18.9688 16.0027 19.1507 15.5222C19.61 14.3092 20.1815 12.7994 21.7136 12.7994C23.2457 12.7994 23.8172 14.3092 24.2764 15.5222C24.4584 16.0026 24.8369 17.0025 25.076 17.0025C25.3801 17.0025 25.6319 16.9544 25.8043 16.8634C25.9084 16.8085 26.2257 16.641 26.1012 15.8563C25.9544 14.9324 25.1776 13.3911 23.4373 11.8363C21.8181 10.3896 19.8016 9.35788 17.7071 8.89252C17.0836 9.74935 16.0766 10.2777 14.9887 10.2777C14.2986 10.2777 13.629 10.063 13.0711 9.67538C11.936 10.3652 10.72 10.7126 9.43667 10.7126C9.01872 10.7126 8.59363 10.6753 8.16197 10.6017ZM4.36553 18.6338C4.36553 25.3088 10.0003 28.1018 15.0109 28.0533C21.345 27.9919 25.6149 25.2054 25.6149 18.6478C25.443 18.6709 25.2639 18.6838 25.0759 18.6838C23.6757 18.6838 23.1369 17.2609 22.7041 16.1176C22.4426 15.4267 22.0844 14.4807 21.7135 14.4807C21.3426 14.4807 20.9845 15.4267 20.7229 16.1176C20.29 17.2609 19.7514 18.6838 18.3511 18.6838C17.0678 18.6838 16.4822 17.7556 16.0545 17.0778C15.6351 16.4131 15.4346 16.1619 14.9886 16.1619C14.5427 16.1619 14.3421 16.4131 13.9228 17.0778C13.4951 17.7556 12.9095 18.6838 11.6262 18.6838C10.2259 18.6838 9.68717 17.2609 9.25435 16.1176C8.99283 15.4267 8.63473 14.4807 8.26377 14.4807C7.8929 14.4807 7.53471 15.4267 7.2732 16.1176C6.84037 17.2609 6.30162 18.6838 4.90134 18.6838C4.71666 18.6838 4.53811 18.6657 4.36553 18.6338Z" fill="#509E2F"/>
<path d="M11.9512 8.35431L11.8826 8.38469L11.8826 8.38469L11.9512 8.35431ZM12.0197 8.32393C12.0176 8.31911 12.0151 8.31337 12.0123 8.30757L11.8766 8.3714C11.8785 8.37542 11.8803 8.3796 11.8826 8.38469L12.0197 8.32393ZM11.8826 8.38469C11.8849 8.38981 11.8876 8.39595 11.8905 8.40215L12.0261 8.33794C12.0241 8.33373 12.0221 8.32934 12.0197 8.32393L11.8826 8.38469ZM27.1634 17.9204L27.0556 17.8162L27.0134 17.8598V17.9204H27.1634ZM27.7615 15.5926L27.6134 15.6161L27.6134 15.6161L27.7615 15.5926ZM24.5574 10.5826L24.4574 10.6944L24.4574 10.6944L24.5574 10.5826ZM18.3275 7.31033L18.1786 7.29293L18.1632 7.42481L18.2922 7.4561L18.3275 7.31033ZM15.8848 3.67495L15.7367 3.65099L15.7153 3.78364L15.8448 3.8195L15.8848 3.67495ZM17.0322 1.78954L16.9675 1.65419L16.967 1.65444L17.0322 1.78954ZM17.4286 0.669012L17.2932 0.733584L17.2932 0.733606L17.4286 0.669012ZM16.308 0.272245L16.3725 0.407649L16.3725 0.407646L16.308 0.272245ZM14.191 3.65023L14.2266 3.79594L14.3279 3.77119L14.34 3.66765L14.191 3.65023ZM13.9883 3.7058L13.8589 3.78157L13.9191 3.88451L14.033 3.84899L13.9883 3.7058ZM7.64122 5.01479L7.6757 5.16078L7.86704 5.11559L7.77291 4.94298L7.64122 5.01479ZM3.5013 7.12842L3.40147 7.01646L3.40146 7.01647L3.5013 7.12842ZM3.50114 8.38319L3.60102 8.27129L3.60101 8.27127L3.50114 8.38319ZM6.1082 9.98556L6.19914 10.1049L6.40326 9.94925L6.1675 9.84778L6.1082 9.98556ZM2.30966 15.7376L2.15986 15.7298L2.15986 15.7298L2.30966 15.7376ZM2.86337 17.736L3.01298 17.7468L3.0171 17.6896L2.98206 17.6443L2.86337 17.736ZM9.68104 2.31299L9.63033 2.45416L9.63036 2.45417L9.68104 2.31299ZM12.5576 4.59424L12.666 4.69796L12.7437 4.61669L12.6875 4.51926L12.5576 4.59424ZM11.6538 6.48586L11.5987 6.62537L11.7781 6.69623L11.8026 6.50486L11.6538 6.48586ZM9.72719 5.10944L9.84195 5.01286L9.84192 5.01281L9.72719 5.10944ZM8.36338 1.97044L8.38849 1.82256L8.1799 1.78714L8.21553 1.9957L8.36338 1.97044ZM8.74292 6.52503L8.85088 6.42089L8.79916 6.36727L8.72517 6.37608L8.74292 6.52503ZM11.9445 8.33948L12.0811 8.2777L12.0512 8.21152L11.9808 8.19394L11.9445 8.33948ZM11.9599 8.37344L12.0315 8.50529L12.157 8.43718L12.0951 8.30845L11.9599 8.37344ZM8.16996 8.89227L8.20129 8.74558L8.20122 8.74556L8.16996 8.89227ZM5.48523 7.7561L5.40477 7.6295L5.20562 7.75605L5.40473 7.88268L5.48523 7.7561ZM3.9886 15.8254L4.1384 15.8332L4.1384 15.8332L3.9886 15.8254ZM8.16197 10.6017L8.18717 10.4539L8.13017 10.4441L8.0814 10.4752L8.16197 10.6017ZM13.0711 9.67538L13.1567 9.55219L13.0766 9.49653L12.9932 9.54719L13.0711 9.67538ZM17.7071 8.89252L17.7396 8.74609L17.6436 8.72477L17.5858 8.80426L17.7071 8.89252ZM23.4373 11.8363L23.5373 11.7245L23.5373 11.7245L23.4373 11.8363ZM26.1012 15.8563L26.2493 15.8328L26.2493 15.8328L26.1012 15.8563ZM25.8043 16.8634L25.7344 16.7308L25.7343 16.7308L25.8043 16.8634ZM24.2764 15.5222L24.1362 15.5753L24.1362 15.5754L24.2764 15.5222ZM19.1507 15.5222L19.291 15.5753L19.291 15.5753L19.1507 15.5222ZM17.4764 16.1806L17.3496 16.2606L17.3496 16.2606L17.4764 16.1806ZM12.501 16.1806L12.6279 16.2607L12.6279 16.2606L12.501 16.1806ZM10.8268 15.5222L10.9671 15.4691L10.9671 15.4691L10.8268 15.5222ZM5.70092 15.5222L5.56064 15.4691L5.56063 15.4691L5.70092 15.5222ZM4.32384 16.838L4.415 16.7188L4.41485 16.7187L4.32384 16.838ZM4.36553 18.6338L4.39276 18.4863L4.21553 18.4536V18.6338H4.36553ZM7.2732 16.1176L7.41348 16.1707L7.41348 16.1707L7.2732 16.1176ZM9.25435 16.1176L9.39463 16.0644L9.39463 16.0644L9.25435 16.1176ZM13.9228 17.0778L13.7959 16.9977L13.7959 16.9977L13.9228 17.0778ZM16.0545 17.0778L16.1814 16.9977L16.1814 16.9977L16.0545 17.0778ZM20.7229 16.1176L20.8632 16.1707L20.8632 16.1707L20.7229 16.1176ZM22.7041 16.1176L22.8444 16.0644L22.8444 16.0644L22.7041 16.1176ZM25.6149 18.6478H25.7649V18.4763L25.5949 18.4991L25.6149 18.6478ZM11.9512 8.35431L11.8145 8.41609L11.8145 8.41623L11.9512 8.35431ZM15.0109 28.0533L15.0095 27.9033L15.0109 28.0533ZM11.9583 8.37005L11.8216 8.43198L11.8231 8.43504L11.9583 8.37005ZM27.2713 18.0246C27.8458 17.4302 28.0678 16.5649 27.9097 15.5691L27.6134 15.6161C27.7605 16.5428 27.5493 17.3052 27.0556 17.8162L27.2713 18.0246ZM27.9097 15.5691C27.6533 13.9548 26.4286 12.0531 24.6573 10.4707L24.4574 10.6944C26.2013 12.2524 27.3721 14.0964 27.6134 15.6161L27.9097 15.5691ZM24.6573 10.4707C22.8737 8.87722 20.6672 7.7233 18.3629 7.16455L18.2922 7.4561C20.5487 8.00325 22.7108 9.13394 24.4574 10.6944L24.6573 10.4707ZM18.4765 7.32772C18.4924 7.19218 18.5012 7.05471 18.5012 6.91516H18.2012C18.2012 7.04207 18.1932 7.16788 18.1786 7.29293L18.4765 7.32772ZM18.5012 6.91516C18.5012 5.30209 17.4082 3.94118 15.9248 3.53039L15.8448 3.8195C17.202 4.19536 18.2012 5.44083 18.2012 6.91516H18.5012ZM16.0329 3.6989C16.2527 2.33973 17.0826 1.93176 17.0973 1.92465L16.967 1.65444C16.8963 1.68852 15.9772 2.16436 15.7367 3.65099L16.0329 3.6989ZM17.0968 1.9249C17.5902 1.68924 17.7995 1.09816 17.564 0.604419L17.2932 0.733606C17.4574 1.07779 17.3115 1.48989 16.9675 1.65419L17.0968 1.9249ZM17.564 0.604441C17.3285 0.110673 16.7373 -0.0985935 16.2434 0.136845L16.3725 0.407646C16.7169 0.243458 17.1291 0.389433 17.2932 0.733584L17.564 0.604441ZM16.2434 0.136841C16.0185 0.244041 14.3347 1.12988 14.042 3.63281L14.34 3.66765C14.6157 1.30984 16.1939 0.492781 16.3725 0.407649L16.2434 0.136841ZM14.1554 3.50452C14.0853 3.52164 14.0144 3.54054 13.9436 3.5626L14.033 3.84899C14.0959 3.82936 14.1605 3.81211 14.2266 3.79594L14.1554 3.50452ZM14.1178 3.63002C13.0768 1.85157 11.4475 0.955018 10.0636 0.50331C8.68012 0.0517347 7.52954 0.0403699 7.42316 0.0403699V0.34037C7.51282 0.34037 8.62856 0.350483 9.97052 0.788502C11.3121 1.22639 12.8673 2.08755 13.8589 3.78157L14.1178 3.63002ZM7.42316 0.0403699C6.87605 0.0403699 6.43256 0.483868 6.43256 1.03098H6.73256C6.73256 0.649553 7.04174 0.34037 7.42316 0.34037V0.0403699ZM6.43256 1.03098C6.43256 1.13913 6.44836 3.14069 7.50953 5.08661L7.77291 4.94298C6.74786 3.06329 6.73256 1.12239 6.73256 1.03098H6.43256ZM7.60674 4.86881C5.19558 5.43826 3.49034 6.93722 3.40147 7.01646L3.60113 7.24037C3.67837 7.1715 5.33809 5.71286 7.6757 5.16078L7.60674 4.86881ZM3.40146 7.01647C3.19076 7.20439 3.07022 7.47332 3.07012 7.75571L3.37012 7.75582C3.37019 7.55889 3.45425 7.37137 3.60114 7.24036L3.40146 7.01647ZM3.07012 7.75571C3.07002 8.03818 3.1906 8.30713 3.40127 8.49511L3.60101 8.27127C3.45408 8.14017 3.37005 7.95266 3.37012 7.75582L3.07012 7.75571ZM3.40125 8.4951C3.46287 8.5501 4.48521 9.45033 6.0489 10.1233L6.1675 9.84778C4.64531 9.19263 3.65053 8.31548 3.60102 8.27129L3.40125 8.4951ZM6.01726 9.86627C3.69446 11.6369 2.26347 13.7501 2.15986 15.7298L2.45945 15.7454C2.55641 13.8928 3.90784 11.8515 6.19914 10.1049L6.01726 9.86627ZM2.15986 15.7298C2.11699 16.5495 2.31836 17.276 2.74467 17.8277L2.98206 17.6443C2.60744 17.1595 2.4196 16.5074 2.45945 15.7454L2.15986 15.7298ZM16.5199 6.91524C16.5199 7.76721 15.826 8.44646 14.9886 8.44646V8.74646C15.9898 8.74646 16.8199 7.9348 16.8199 6.91524H16.5199ZM14.9886 8.44646C14.1489 8.44646 13.4574 7.76223 13.4574 6.91524H13.1574C13.1574 7.92886 13.9841 8.74646 14.9886 8.74646V8.44646ZM13.4574 6.91524C13.4574 6.0637 14.1505 5.38402 14.9886 5.38402V5.08402C13.9865 5.08402 13.1574 5.89626 13.1574 6.91524H13.4574ZM14.9886 5.38402C15.8328 5.38402 16.5199 6.07098 16.5199 6.91524H16.8199C16.8199 5.90529 15.9985 5.08402 14.9886 5.08402V5.38402ZM9.63036 2.45417C10.9118 2.91412 11.8452 3.65991 12.4277 4.66921L12.6875 4.51926C12.0644 3.43948 11.0695 2.652 9.73171 2.17181L9.63036 2.45417ZM12.4492 4.49052C11.9331 5.02971 11.6004 5.71988 11.505 6.46686L11.8026 6.50486C11.8898 5.82213 12.1938 5.19119 12.666 4.69796L12.4492 4.49052ZM11.7089 6.34634C10.9676 6.0536 10.3427 5.60783 9.84195 5.01286L9.61242 5.20603C10.1461 5.8402 10.8125 6.31489 11.5987 6.62537L11.7089 6.34634ZM9.84192 5.01281C9.00103 4.01446 8.65377 2.77949 8.51124 1.94518L8.21553 1.9957C8.36216 2.85405 8.72237 4.1493 9.61246 5.20608L9.84192 5.01281ZM8.33827 2.11833C8.70781 2.18107 9.15751 2.28434 9.63033 2.45416L9.73174 2.17182C9.23887 1.9948 8.77147 1.88759 8.38849 1.82256L8.33827 2.11833ZM8.63496 6.62916C9.51335 7.53984 10.6123 8.16182 11.9082 8.48502L11.9808 8.19394C10.7361 7.8835 9.68784 7.28861 8.85088 6.42089L8.63496 6.62916ZM11.8884 8.24159C10.7558 8.85599 9.52125 9.02751 8.20129 8.74558L8.13863 9.03896C9.5256 9.3352 10.8334 9.15517 12.0315 8.50529L11.8884 8.24159ZM8.20122 8.74556C7.12649 8.51657 6.19615 8.03044 5.56572 7.62953L5.40473 7.88268C6.05253 8.29463 7.01675 8.79992 8.1387 9.03898L8.20122 8.74556ZM5.56568 7.8827C6.30417 7.41341 7.45212 6.82989 8.76067 6.67398L8.72517 6.37608C7.35419 6.53943 6.16239 7.14806 5.40477 7.6295L5.56568 7.8827ZM4.1384 15.8332C4.1997 14.6608 5.29169 12.6075 8.24255 10.7283L8.0814 10.4752C5.09033 12.3801 3.9073 14.5078 3.83881 15.8175L4.1384 15.8332ZM8.13678 10.7496C8.57624 10.8245 9.00977 10.8626 9.43667 10.8626V10.5626C9.02768 10.5626 8.61102 10.5261 8.18717 10.4539L8.13678 10.7496ZM9.43667 10.8626C10.7485 10.8626 11.9913 10.5071 13.149 9.80357L12.9932 9.54719C11.8806 10.2233 10.6915 10.5626 9.43667 10.5626V10.8626ZM12.9855 9.79857C13.5682 10.2034 14.2675 10.4277 14.9887 10.4277V10.1277C14.3297 10.1277 13.6899 9.92261 13.1567 9.55219L12.9855 9.79857ZM14.9887 10.4277C16.1253 10.4277 17.1771 9.87574 17.8284 8.98078L17.5858 8.80426C16.9901 9.62296 16.0278 10.1277 14.9887 10.1277V10.4277ZM17.6746 9.03895C19.744 9.49873 21.7372 10.5186 23.3374 11.9482L23.5373 11.7245C21.8989 10.2607 19.8593 9.21703 17.7396 8.74609L17.6746 9.03895ZM23.3374 11.9482C25.0612 13.4883 25.8133 15.0006 25.953 15.8798L26.2493 15.8328C26.0954 14.8642 25.294 13.294 23.5373 11.7245L23.3374 11.9482ZM25.953 15.8798C26.0121 16.2523 25.9626 16.4549 25.9056 16.564C25.8502 16.6699 25.7781 16.7077 25.7344 16.7308L25.8743 16.9961C25.9347 16.9643 26.0732 16.8908 26.1714 16.703C26.2679 16.5185 26.3147 16.245 26.2493 15.8328L25.953 15.8798ZM25.7343 16.7308C25.5923 16.8057 25.368 16.8525 25.076 16.8525V17.1525C25.3921 17.1525 25.6716 17.1031 25.8743 16.9961L25.7343 16.7308ZM25.076 16.8525C25.0977 16.8525 25.0994 16.8626 25.0771 16.8438C25.0571 16.827 25.0304 16.7974 24.998 16.7518C24.9337 16.6613 24.8627 16.5306 24.7903 16.3781C24.6461 16.0746 24.5081 15.7104 24.4167 15.4691L24.1362 15.5754C24.2267 15.8145 24.3689 16.1904 24.5193 16.5069C24.5941 16.6644 24.674 16.8137 24.7535 16.9256C24.7931 16.9813 24.8367 17.0336 24.8839 17.0733C24.9288 17.1111 24.9946 17.1525 25.076 17.1525V16.8525ZM24.4167 15.4691C24.1888 14.8669 23.9243 14.1655 23.5179 13.6167C23.1062 13.0608 22.5397 12.6494 21.7136 12.6494V12.9494C22.4195 12.9494 22.9049 13.2929 23.2768 13.7952C23.654 14.3045 23.9049 14.9645 24.1362 15.5753L24.4167 15.4691ZM21.7136 12.6494C20.8874 12.6494 20.321 13.0608 19.9093 13.6167C19.5029 14.1655 19.2384 14.8669 19.0105 15.4691L19.291 15.5753C19.5223 14.9645 19.7732 14.3045 20.1504 13.7952C20.5223 13.2929 21.0077 12.9494 21.7136 12.9494V12.6494ZM19.0105 15.4691C18.9191 15.7104 18.7811 16.0746 18.6369 16.3782C18.5645 16.5306 18.4935 16.6613 18.4291 16.7518C18.3968 16.7974 18.3701 16.827 18.3501 16.8438C18.3278 16.8626 18.3295 16.8525 18.3512 16.8525V17.1525C18.4326 17.1525 18.4984 17.1111 18.5433 17.0733C18.5905 17.0336 18.6341 16.9813 18.6737 16.9257C18.7532 16.8137 18.8331 16.6644 18.9079 16.5069C19.0582 16.1904 19.2005 15.8146 19.291 15.5753L19.0105 15.4691ZM18.3512 16.8525C18.2878 16.8525 18.2398 16.8437 18.1972 16.8262C18.1542 16.8086 18.1084 16.7788 18.0542 16.7263C17.9407 16.6164 17.8092 16.4269 17.6033 16.1006L17.3496 16.2606C17.5517 16.5809 17.7016 16.8025 17.8455 16.9418C17.92 17.0139 17.9969 17.0684 18.0834 17.1038C18.1702 17.1394 18.2586 17.1525 18.3512 17.1525V16.8525ZM17.6033 16.1006C17.1792 15.4284 16.494 14.3306 14.9887 14.3306V14.6306C16.3136 14.6306 16.9194 15.5789 17.3496 16.2606L17.6033 16.1006ZM14.9887 14.3306C13.4834 14.3306 12.7983 15.4284 12.3742 16.1006L12.6279 16.2606C13.058 15.5789 13.6639 14.6306 14.9887 14.6306V14.3306ZM12.3742 16.1005C12.1682 16.4269 12.0367 16.6163 11.9232 16.7263C11.869 16.7788 11.8232 16.8086 11.7802 16.8262C11.7376 16.8437 11.6896 16.8525 11.6263 16.8525V17.1525C11.7189 17.1525 11.8072 17.1394 11.894 17.1038C11.9805 17.0683 12.0574 17.0139 12.1319 16.9418C12.2758 16.8025 12.4257 16.581 12.6279 16.2607L12.3742 16.1005ZM11.6263 16.8525C11.648 16.8525 11.6496 16.8626 11.6273 16.8438C11.6074 16.827 11.5807 16.7974 11.5483 16.7518C11.484 16.6613 11.413 16.5306 11.3405 16.3781C11.1964 16.0746 11.0584 15.7104 10.9671 15.4691L10.6865 15.5753C10.777 15.8145 10.9192 16.1904 11.0695 16.5069C11.1444 16.6644 11.2242 16.8137 11.3038 16.9256C11.3434 16.9813 11.3869 17.0336 11.4341 17.0733C11.479 17.1111 11.5448 17.1525 11.6263 17.1525V16.8525ZM10.9671 15.4691C10.7391 14.8669 10.4746 14.1655 10.0682 13.6166C9.6565 13.0608 9.09 12.6494 8.26386 12.6494V12.9494C8.9698 12.9494 9.45515 13.293 9.8271 13.7952C10.2043 14.3045 10.4553 14.9645 10.6865 15.5753L10.9671 15.4691ZM8.26386 12.6494C7.43771 12.6494 6.87123 13.0608 6.45955 13.6167C6.05311 14.1655 5.78866 14.8669 5.56064 15.4691L5.84121 15.5753C6.0725 14.9645 6.32347 14.3045 6.70064 13.7952C7.07258 13.2929 7.55791 12.9494 8.26386 12.9494V12.6494ZM5.56063 15.4691C5.46934 15.7104 5.33134 16.0747 5.18715 16.3782C5.11473 16.5306 5.04372 16.6613 4.97937 16.7518C4.947 16.7974 4.92031 16.827 4.90035 16.8438C4.87805 16.8626 4.87973 16.8525 4.90142 16.8525V17.1525C4.98288 17.1525 5.04868 17.1111 5.09356 17.0733C5.14077 17.0336 5.18431 16.9813 5.22389 16.9256C5.30345 16.8137 5.38329 16.6644 5.45813 16.5069C5.60847 16.1904 5.75069 15.8146 5.84122 15.5753L5.56063 15.4691ZM4.90142 16.8525C4.68263 16.8525 4.52407 16.8023 4.415 16.7188L4.23268 16.9571C4.40941 17.0923 4.63905 17.1525 4.90142 17.1525V16.8525ZM4.41485 16.7187C4.23165 16.5789 4.11496 16.2813 4.1384 15.8332L3.83881 15.8175C3.81316 16.3079 3.93452 16.7295 4.23283 16.9572L4.41485 16.7187ZM4.3383 18.7813C4.51913 18.8147 4.70681 18.8338 4.90134 18.8338V18.5338C4.72651 18.5338 4.55709 18.5167 4.39276 18.4863L4.3383 18.7813ZM4.90134 18.8338C5.66334 18.8338 6.18855 18.4423 6.57124 17.9178C6.9492 17.3998 7.19869 16.738 7.41348 16.1707L7.13291 16.0644C6.91488 16.6404 6.67859 17.2617 6.32889 17.741C5.98393 18.2138 5.53963 18.5338 4.90134 18.5338V18.8338ZM7.41348 16.1707C7.54508 15.823 7.69681 15.4229 7.86044 15.1095C7.94245 14.9525 8.02328 14.8255 8.10064 14.7399C8.18158 14.6502 8.23583 14.6307 8.26377 14.6307V14.3307C8.10627 14.3307 7.97667 14.4295 7.87797 14.5388C7.7757 14.6521 7.6811 14.8048 7.59451 14.9706C7.42095 15.303 7.26283 15.7212 7.13291 16.0644L7.41348 16.1707ZM8.26377 14.6307C8.29174 14.6307 8.346 14.6502 8.42694 14.7399C8.50431 14.8255 8.58514 14.9525 8.66714 15.1095C8.83076 15.4229 8.98246 15.823 9.11406 16.1707L9.39463 16.0644C9.26471 15.7213 9.10661 15.303 8.93307 14.9707C8.84648 14.8048 8.75189 14.6521 8.64961 14.5388C8.5509 14.4295 8.42129 14.3307 8.26377 14.3307V14.6307ZM9.11406 16.1707C9.32886 16.7381 9.57835 17.3998 9.95631 17.9178C10.339 18.4423 10.8642 18.8338 11.6262 18.8338V18.5338C10.9879 18.5338 10.5436 18.2138 10.1987 17.741C9.84896 17.2618 9.61266 16.6404 9.39463 16.0644L9.11406 16.1707ZM11.6262 18.8338C13.0005 18.8338 13.626 17.8293 14.0496 17.1578L13.7959 16.9977C13.3643 17.6818 12.8185 18.5338 11.6262 18.5338V18.8338ZM14.0496 17.1578C14.2614 16.8221 14.4062 16.611 14.5474 16.4809C14.6773 16.3612 14.8024 16.3119 14.9886 16.3119V16.0119C14.729 16.0119 14.5308 16.0882 14.3441 16.2603C14.1686 16.422 14.0035 16.6688 13.7959 16.9977L14.0496 17.1578ZM14.9886 16.3119C15.1749 16.3119 15.3 16.3612 15.4299 16.4809C15.571 16.611 15.7158 16.8221 15.9277 17.1578L16.1814 16.9977C15.9738 16.6688 15.8086 16.422 15.6332 16.2603C15.4465 16.0883 15.2483 16.0119 14.9886 16.0119V16.3119ZM15.9277 17.1578C16.3513 17.8293 16.9768 18.8338 18.3511 18.8338V18.5338C17.1588 18.5338 16.613 17.6818 16.1814 16.9977L15.9277 17.1578ZM18.3511 18.8338C19.1131 18.8338 19.6383 18.4423 20.0209 17.9178C20.3989 17.3998 20.6484 16.738 20.8632 16.1707L20.5827 16.0644C20.3646 16.6404 20.1283 17.2617 19.7786 17.741C19.4336 18.2138 18.9894 18.5338 18.3511 18.5338V18.8338ZM20.8632 16.1707C20.9948 15.823 21.1465 15.4229 21.3102 15.1095C21.3922 14.9525 21.473 14.8255 21.5504 14.7399C21.6313 14.6502 21.6856 14.6307 21.7135 14.6307V14.3307C21.556 14.3307 21.4264 14.4295 21.3277 14.5388C21.2254 14.6521 21.1308 14.8048 21.0443 14.9706C20.8707 15.303 20.7126 15.7212 20.5827 16.0644L20.8632 16.1707ZM21.7135 14.6307C21.7414 14.6307 21.7957 14.6502 21.8766 14.7399C21.954 14.8255 22.0348 14.9525 22.1168 15.1095C22.2805 15.4229 22.4322 15.823 22.5638 16.1707L22.8444 16.0644C22.7144 15.7212 22.5563 15.303 22.3828 14.9706C22.2962 14.8048 22.2016 14.6521 22.0993 14.5388C22.0006 14.4295 21.871 14.3307 21.7135 14.3307V14.6307ZM22.5638 16.1707C22.7786 16.7381 23.0281 17.3998 23.406 17.9178C23.7887 18.4423 24.3139 18.8338 25.0759 18.8338V18.5338C24.4377 18.5338 23.9933 18.2138 23.6484 17.741C23.2987 17.2618 23.0624 16.6404 22.8444 16.0644L22.5638 16.1707ZM25.0759 18.8338C25.2708 18.8338 25.4566 18.8204 25.6349 18.7964L25.5949 18.4991C25.4295 18.5214 25.257 18.5338 25.0759 18.5338V18.8338ZM11.8078 8.40127L11.8145 8.41609L12.0878 8.29253L12.0811 8.2777L11.8078 8.40127ZM11.8231 8.43504L11.8247 8.43844L12.0951 8.30845L12.0935 8.30505L11.8231 8.43504ZM12.0949 8.30813L12.0878 8.29239L11.8145 8.41623L11.8217 8.43196L12.0949 8.30813ZM15.0095 27.9033C12.5297 27.9273 9.90253 27.2477 7.89924 25.7449C5.90118 24.2461 4.51553 21.9231 4.51553 18.6338H4.21553C4.21553 22.0195 5.64724 24.4306 7.71921 25.9849C9.78595 27.5352 12.4815 28.2278 15.0124 28.2033L15.0095 27.9033ZM2.71375 17.7252C2.43331 21.6131 3.96005 24.6744 6.33345 26.7605C8.70336 28.8435 11.9147 29.9525 15.0109 29.9525V29.6525C11.9817 29.6525 8.84244 28.5664 6.5315 26.5352C4.22405 24.5071 2.73971 21.5352 3.01298 17.7468L2.71375 17.7252ZM25.4649 18.6478C25.4649 21.8916 24.4105 24.1809 22.5931 25.6706C20.7703 27.1648 18.158 27.8728 15.0095 27.9033L15.0124 28.2033C18.1979 28.1724 20.8876 27.4565 22.7833 25.9026C24.6843 24.3443 25.7649 21.9615 25.7649 18.6478H25.4649ZM15.0109 29.9525C18.1041 29.9525 21.1789 28.9617 23.4826 26.9587C25.7894 24.953 27.3134 21.9404 27.3134 17.9204H27.0134C27.0134 21.8577 25.5239 24.7862 23.2858 26.7323C21.0446 28.6809 18.0431 29.6525 15.0109 29.6525V29.9525Z" fill="#509E2F" mask="url(#path-1-outside-1)"/>
</svg>
