<svg width="30" height="30" viewBox="0 0 30 30" fill="none" xmlns="http://www.w3.org/2000/svg">
<path d="M16.8595 29.3109H16.8623H19.1707C20.5142 29.3109 21.5714 28.1977 21.5714 26.8726V23.2114C21.5714 22.5147 21.2832 21.8851 20.805 21.4441C21.2821 21.0448 21.5931 20.4475 21.5931 19.7789C21.5931 19.146 21.3226 18.5756 20.8879 18.1771C21.323 17.7791 21.5985 17.2089 21.5985 16.5752C21.5985 15.9058 21.2818 15.3089 20.8042 14.9101C21.2825 14.4691 21.5715 13.8396 21.5715 13.1428V9.56219C21.5715 9.08547 21.413 8.62227 21.1211 8.24542L17.5856 3.68214H17.6897C18.0487 3.68214 18.3397 3.39113 18.3397 3.03214V0.885742C18.3397 0.526757 18.0487 0.235742 17.6897 0.235742H12.2838C11.9248 0.235742 11.6338 0.526757 11.6338 0.885742V3.03214C11.6338 3.39113 11.9248 3.68214 12.2838 3.68214H12.4429L8.86128 8.24155C8.56374 8.62032 8.402 9.08803 8.402 9.56969V13.1429C8.402 13.8433 8.71691 14.4719 9.19715 14.9107C8.72117 15.311 8.42366 15.9087 8.42366 16.5754C8.42366 17.2092 8.70089 17.7793 9.13606 18.1772C8.70129 18.5756 8.42907 19.1459 8.42907 19.779C8.42907 20.4447 8.72075 21.0427 9.19631 21.4436C8.71608 21.8825 8.402 22.5112 8.402 23.2114V26.8726C8.402 28.2027 9.52191 29.3109 10.8604 29.3109H13.1688H13.1716C13.5602 29.5822 14.0361 29.7686 14.5539 29.7686H15.4772C15.995 29.7686 16.471 29.5822 16.8595 29.3109ZM12.1243 27.3301C12.1243 27.6209 12.177 27.8792 12.2691 28.1527H10.8604C10.1624 28.1527 9.56764 27.5613 9.56764 26.8725V23.2112C9.56764 22.5303 10.1543 21.9883 10.8604 21.9883H15.4773H18.2474H19.1708C19.8688 21.9883 20.4058 22.5225 20.4058 23.2112V26.8725C20.4058 27.5693 19.861 28.1527 19.1708 28.1527H17.7621C17.8542 27.8792 17.9069 27.6209 17.9069 27.3301V27.1801H17.7569H16.8912H16.7412V27.3301C16.7412 28.0229 16.1714 28.6103 15.4773 28.6103H14.5539C13.8598 28.6103 13.29 28.0229 13.29 27.3301V27.1801H13.14H12.2743H12.1243V27.3301ZM12.7995 2.524V1.39383H17.1741V2.524H12.7995ZM10.1989 8.47355L13.9171 3.68214H16.114L19.8321 8.47355H10.1989ZM19.4016 18.7847C19.9724 18.7847 20.4347 19.2449 20.4347 19.8075C20.4347 20.37 19.9724 20.8302 19.4016 20.8302H18.2474H15.4773H10.6296C10.0589 20.8302 9.59656 20.37 9.59656 19.8075C9.59656 19.2449 10.0589 18.7847 10.6296 18.7847H15.4773H18.2474H19.4016ZM15.4773 17.6266H10.6296C10.0589 17.6266 9.59656 17.1665 9.59656 16.6039C9.59656 16.0413 10.0589 15.5812 10.6296 15.5812H15.4773H18.2474H19.4016C19.9724 15.5812 20.4347 16.0413 20.4347 16.6039C20.4347 17.1665 19.9724 17.6266 19.4016 17.6266H18.2474H15.4773ZM15.4773 14.4231H10.8604C10.1624 14.4231 9.56764 13.8317 9.56764 13.1429V9.63169H20.4058V13.1429C20.4058 13.8397 19.861 14.4231 19.1708 14.4231H18.2474H15.4773Z" fill="#509E2F" stroke="#509E2F" stroke-width="0.3"/>
</svg>
