<svg width="30" height="30" viewBox="0 0 30 30" fill="none" xmlns="http://www.w3.org/2000/svg">
<path d="M27.8702 20.1821H2.12985C1.76824 20.1821 1.43604 20.4551 1.43604 20.8384C1.43604 25.7009 5.74982 29.6199 11.0058 29.6199H18.9942C24.2498 29.6199 28.564 25.7009 28.564 20.8384C28.564 20.4553 28.2324 20.1821 27.8702 20.1821ZM18.9942 28.3074H11.0058C6.71814 28.3074 3.21909 25.2895 2.85494 21.4946H27.145C26.7809 25.2895 23.2819 28.3074 18.9942 28.3074Z" fill="#509E2F" stroke="#509E2F" stroke-width="0.5"/>
<mask id="path-2-outside-1" maskUnits="userSpaceOnUse" x="6.42822" y="1.44653" width="16" height="16" fill="black">
<rect fill="white" x="6.42822" y="1.44653" width="16" height="16"/>
<path fill-rule="evenodd" clip-rule="evenodd" d="M21.3192 7.79756C21.3218 7.84074 21.3223 7.86915 21.3223 7.89756C21.3218 8.31388 21.1592 8.70452 20.8651 8.9979C20.613 9.24924 20.2897 9.40373 19.9403 9.44262C20.0905 9.69706 20.1698 9.99664 20.1531 10.3134C20.0749 11.1604 19.3602 11.8098 18.5244 11.7868H17.9988C18.1318 12.016 18.2077 12.2817 18.2077 12.565C18.2081 13.4225 17.5101 14.1205 16.6518 14.1205H10.1984L7.97844 16.3405L7.42822 15.7903L9.64829 13.5702V7.96135C9.6343 7.1326 10.2743 6.41784 11.1066 6.34042C11.1498 6.33809 11.1782 6.33731 11.2062 6.33731C11.4832 6.33772 11.7493 6.41009 11.9828 6.54511V6.01594C11.9688 5.18723 12.6088 4.47247 13.4406 4.39504C13.4838 4.39272 13.5126 4.39194 13.5406 4.39194C13.8235 4.39235 14.0885 4.46859 14.3172 4.60129V4.00481C14.3172 3.97681 14.3176 3.94841 14.3192 3.92C14.3655 3.06325 15.095 2.40184 15.9568 2.4489C16.6112 2.50959 17.1423 2.95002 17.3431 3.5325L17.8217 3.04692C17.8695 2.99904 17.9174 2.95586 17.9668 2.91501C18.8364 2.19947 20.1266 2.32323 20.8425 3.1932C21.511 4.03828 21.4343 5.23511 20.6706 5.98329L20.2301 6.42372C20.8157 6.62253 21.2592 7.15248 21.3192 7.79756ZM19.7655 8.67378C19.9737 8.67378 20.1686 8.59321 20.3157 8.44693C20.4628 8.30024 20.5437 8.10494 20.5441 7.8972L20.5429 7.85438C20.5048 7.44509 20.1438 7.11746 19.7189 7.11746H19.6983H19.3753C19.2182 7.11746 19.0758 7.02252 19.0158 6.87738C18.9556 6.73183 18.989 6.56453 19.1003 6.45327L20.1236 5.42999C20.6052 4.958 20.6531 4.20786 20.2376 3.68184C19.7987 3.14956 19.0007 3.07255 18.4622 3.51531C18.4314 3.54057 18.4019 3.56743 18.3731 3.59584L17.3175 4.66699C17.207 4.7798 17.0382 4.81405 16.893 4.75413C16.7468 4.69422 16.6514 4.55181 16.6514 4.39422V4.07129C16.6596 3.63318 16.3293 3.26475 15.8997 3.22466C15.4779 3.20328 15.1192 3.53318 15.0966 3.96158L15.0955 4.00477V5.95014V5.95055C15.095 6.16532 14.9211 6.33923 14.7064 6.33923H14.706C14.4912 6.33923 14.3173 6.16491 14.3173 5.95014V5.94781C14.3169 5.51941 13.9686 5.17081 13.5399 5.17004L13.4978 5.17122C13.0842 5.21016 12.7535 5.5786 12.7609 6.00932V7.89523V7.8956C12.7605 8.11037 12.5866 8.28428 12.3718 8.28428H12.3714C12.1566 8.28428 11.9827 8.10996 11.9827 7.89519V7.89245C11.9823 7.46447 11.6341 7.11582 11.2057 7.11545L11.1633 7.11664C10.7497 7.15558 10.419 7.52402 10.4264 7.95474V13.3428H16.6517C17.0809 13.3428 17.4299 12.9938 17.4299 12.5647C17.4299 12.1355 17.0809 11.7865 16.6517 11.7865C16.4366 11.7865 16.2626 11.6122 16.2626 11.3974C16.2626 11.1826 16.4366 11.0083 16.6517 11.0083H18.531C18.9734 11.0173 19.3372 10.6854 19.3768 10.2566C19.3986 9.84339 19.0687 9.47609 18.6399 9.45316L18.5971 9.45197C18.3819 9.45197 18.208 9.27765 18.208 9.06288C18.208 8.84811 18.3819 8.67378 18.5971 8.67378H19.7643H19.7655Z"/>
</mask>
<path fill-rule="evenodd" clip-rule="evenodd" d="M21.3192 7.79756C21.3218 7.84074 21.3223 7.86915 21.3223 7.89756C21.3218 8.31388 21.1592 8.70452 20.8651 8.9979C20.613 9.24924 20.2897 9.40373 19.9403 9.44262C20.0905 9.69706 20.1698 9.99664 20.1531 10.3134C20.0749 11.1604 19.3602 11.8098 18.5244 11.7868H17.9988C18.1318 12.016 18.2077 12.2817 18.2077 12.565C18.2081 13.4225 17.5101 14.1205 16.6518 14.1205H10.1984L7.97844 16.3405L7.42822 15.7903L9.64829 13.5702V7.96135C9.6343 7.1326 10.2743 6.41784 11.1066 6.34042C11.1498 6.33809 11.1782 6.33731 11.2062 6.33731C11.4832 6.33772 11.7493 6.41009 11.9828 6.54511V6.01594C11.9688 5.18723 12.6088 4.47247 13.4406 4.39504C13.4838 4.39272 13.5126 4.39194 13.5406 4.39194C13.8235 4.39235 14.0885 4.46859 14.3172 4.60129V4.00481C14.3172 3.97681 14.3176 3.94841 14.3192 3.92C14.3655 3.06325 15.095 2.40184 15.9568 2.4489C16.6112 2.50959 17.1423 2.95002 17.3431 3.5325L17.8217 3.04692C17.8695 2.99904 17.9174 2.95586 17.9668 2.91501C18.8364 2.19947 20.1266 2.32323 20.8425 3.1932C21.511 4.03828 21.4343 5.23511 20.6706 5.98329L20.2301 6.42372C20.8157 6.62253 21.2592 7.15248 21.3192 7.79756ZM19.7655 8.67378C19.9737 8.67378 20.1686 8.59321 20.3157 8.44693C20.4628 8.30024 20.5437 8.10494 20.5441 7.8972L20.5429 7.85438C20.5048 7.44509 20.1438 7.11746 19.7189 7.11746H19.6983H19.3753C19.2182 7.11746 19.0758 7.02252 19.0158 6.87738C18.9556 6.73183 18.989 6.56453 19.1003 6.45327L20.1236 5.42999C20.6052 4.958 20.6531 4.20786 20.2376 3.68184C19.7987 3.14956 19.0007 3.07255 18.4622 3.51531C18.4314 3.54057 18.4019 3.56743 18.3731 3.59584L17.3175 4.66699C17.207 4.7798 17.0382 4.81405 16.893 4.75413C16.7468 4.69422 16.6514 4.55181 16.6514 4.39422V4.07129C16.6596 3.63318 16.3293 3.26475 15.8997 3.22466C15.4779 3.20328 15.1192 3.53318 15.0966 3.96158L15.0955 4.00477V5.95014V5.95055C15.095 6.16532 14.9211 6.33923 14.7064 6.33923H14.706C14.4912 6.33923 14.3173 6.16491 14.3173 5.95014V5.94781C14.3169 5.51941 13.9686 5.17081 13.5399 5.17004L13.4978 5.17122C13.0842 5.21016 12.7535 5.5786 12.7609 6.00932V7.89523V7.8956C12.7605 8.11037 12.5866 8.28428 12.3718 8.28428H12.3714C12.1566 8.28428 11.9827 8.10996 11.9827 7.89519V7.89245C11.9823 7.46447 11.6341 7.11582 11.2057 7.11545L11.1633 7.11664C10.7497 7.15558 10.419 7.52402 10.4264 7.95474V13.3428H16.6517C17.0809 13.3428 17.4299 12.9938 17.4299 12.5647C17.4299 12.1355 17.0809 11.7865 16.6517 11.7865C16.4366 11.7865 16.2626 11.6122 16.2626 11.3974C16.2626 11.1826 16.4366 11.0083 16.6517 11.0083H18.531C18.9734 11.0173 19.3372 10.6854 19.3768 10.2566C19.3986 9.84339 19.0687 9.47609 18.6399 9.45316L18.5971 9.45197C18.3819 9.45197 18.208 9.27765 18.208 9.06288C18.208 8.84811 18.3819 8.67378 18.5971 8.67378H19.7643H19.7655Z" fill="#509E2F"/>
<path d="M21.3223 7.89756L21.6223 7.89786V7.89756H21.3223ZM21.3192 7.79756L21.6187 7.7789L21.6179 7.76982L21.3192 7.79756ZM20.8651 8.9979L21.0769 9.21036L21.077 9.21028L20.8651 8.9979ZM19.9403 9.44262L19.9071 9.14446L19.4463 9.19577L19.6819 9.59509L19.9403 9.44262ZM20.1531 10.3134L20.4521 10.341L20.4527 10.3292L20.1531 10.3134ZM18.5244 11.7868L18.5327 11.4868H18.5244V11.7868ZM17.9988 11.7868V11.4868H17.4776L17.7393 11.9375L17.9988 11.7868ZM18.2077 12.565L17.9077 12.565L17.9077 12.5651L18.2077 12.565ZM10.1984 14.1205V13.8205H10.0741L9.98626 13.9084L10.1984 14.1205ZM7.97844 16.3405L7.76631 16.5526L7.97844 16.7647L8.19058 16.5526L7.97844 16.3405ZM7.42822 15.7903L7.21609 15.5781L7.00396 15.7903L7.21609 16.0024L7.42822 15.7903ZM9.64829 13.5702L9.86043 13.7823L9.94829 13.6944V13.5702H9.64829ZM9.64829 7.96135L9.94834 7.96135L9.94825 7.95629L9.64829 7.96135ZM11.1066 6.34042L11.0904 6.04062L11.0788 6.0417L11.1066 6.34042ZM11.2062 6.33731L11.2066 6.03731H11.2062V6.33731ZM11.9828 6.54511L11.8326 6.80481L12.2828 7.06516V6.54511H11.9828ZM11.9828 6.01594H12.2828L12.2827 6.01087L11.9828 6.01594ZM13.4406 4.39504L13.4245 4.09525L13.4128 4.09633L13.4406 4.39504ZM13.5406 4.39194L13.5411 4.09194H13.5406V4.39194ZM14.3172 4.60129L14.1667 4.86079L14.6172 5.12211V4.60129H14.3172ZM14.3192 3.92L14.6187 3.93635L14.6187 3.93618L14.3192 3.92ZM15.9568 2.4489L15.9845 2.14996L15.9732 2.14934L15.9568 2.4489ZM17.3431 3.5325L17.0595 3.63026L17.2171 4.08769L17.5568 3.74308L17.3431 3.5325ZM17.8217 3.04692L17.6095 2.83478L17.608 2.83634L17.8217 3.04692ZM17.9668 2.91501L17.7762 2.68334L17.7757 2.68377L17.9668 2.91501ZM20.8425 3.1932L21.0778 3.00705L21.0742 3.00258L20.8425 3.1932ZM20.6706 5.98329L20.4606 5.76897L20.4584 5.77115L20.6706 5.98329ZM20.2301 6.42372L20.018 6.21159L19.6769 6.55271L20.1337 6.7078L20.2301 6.42372ZM20.3157 8.44693L20.5272 8.65962L20.5275 8.65936L20.3157 8.44693ZM20.5441 7.8972L20.8443 7.89785L20.844 7.88889L20.5441 7.8972ZM20.5429 7.85438L20.8428 7.84608L20.8425 7.8363L20.8416 7.82656L20.5429 7.85438ZM19.0158 6.87738L19.2931 6.76291L19.293 6.76259L19.0158 6.87738ZM19.1003 6.45327L19.3124 6.6654L19.3124 6.6654L19.1003 6.45327ZM20.1236 5.42999L19.9136 5.21571L19.9114 5.21786L20.1236 5.42999ZM20.2376 3.68184L20.473 3.49583L20.469 3.49098L20.2376 3.68184ZM18.4622 3.51531L18.6527 3.74707L18.6527 3.74703L18.4622 3.51531ZM18.3731 3.59584L18.1623 3.38234L18.1594 3.38527L18.3731 3.59584ZM17.3175 4.66699L17.1038 4.45642L17.1032 4.45708L17.3175 4.66699ZM16.893 4.75413L17.0075 4.47683L17.0068 4.47652L16.893 4.75413ZM16.6514 4.07129L16.3514 4.0657V4.07129H16.6514ZM15.8997 3.22466L15.9276 2.92569L15.9149 2.92505L15.8997 3.22466ZM15.0966 3.96158L14.797 3.94579L14.7968 3.95334L15.0966 3.96158ZM15.0955 4.00477L14.7955 3.99652V4.00477H15.0955ZM15.0955 5.95055L15.3955 5.95112V5.95055H15.0955ZM14.3173 5.94781L14.6173 5.94781L14.6173 5.94752L14.3173 5.94781ZM13.5399 5.17004L13.5404 4.8699L13.5314 4.87016L13.5399 5.17004ZM13.4978 5.17122L13.4894 4.87134L13.4795 4.87162L13.4697 4.87254L13.4978 5.17122ZM12.7609 6.00932L13.0609 6.00932L13.0609 6.00418L12.7609 6.00932ZM12.7609 7.8956L13.0609 7.89617V7.8956H12.7609ZM11.9827 7.89245L12.2827 7.89245L12.2827 7.89217L11.9827 7.89245ZM11.2057 7.11545L11.206 6.81533L11.1973 6.81557L11.2057 7.11545ZM11.1633 7.11664L11.1549 6.81676L11.145 6.81703L11.1352 6.81796L11.1633 7.11664ZM10.4264 7.95474L10.7264 7.95474L10.7263 7.9496L10.4264 7.95474ZM10.4264 13.3428H10.1264V13.6428H10.4264V13.3428ZM18.531 11.0083L18.5371 10.7083H18.531V11.0083ZM19.3768 10.2566L19.6758 10.2843L19.6764 10.2724L19.3768 10.2566ZM18.6399 9.45316L18.656 9.15348L18.6482 9.15327L18.6399 9.45316ZM18.5971 9.45197L18.6054 9.15197H18.5971V9.45197ZM21.6223 7.89756C21.6223 7.86453 21.6217 7.82972 21.6186 7.77891L21.0197 7.81622C21.022 7.85177 21.0223 7.87377 21.0223 7.89756H21.6223ZM21.077 9.21028C21.4274 8.86074 21.6218 8.39383 21.6223 7.89786L21.0223 7.89726C21.0219 8.23392 20.891 8.54829 20.6532 8.78552L21.077 9.21028ZM19.9735 9.74078C20.3905 9.69436 20.7768 9.5096 21.0769 9.21036L20.6533 8.78544C20.4493 8.98888 20.1889 9.1131 19.9071 9.14446L19.9735 9.74078ZM20.4527 10.3292C20.4726 9.95168 20.3779 9.59379 20.1987 9.29015L19.6819 9.59509C19.8031 9.80034 19.8671 10.0416 19.8535 10.2975L20.4527 10.3292ZM18.5162 12.0867C19.5157 12.1142 20.3596 11.3398 20.4518 10.341L19.8544 10.2858C19.7902 10.981 19.2046 11.5054 18.5327 11.487L18.5162 12.0867ZM17.9988 12.0868H18.5244V11.4868H17.9988V12.0868ZM18.5077 12.565C18.5077 12.2275 18.4171 11.9099 18.2582 11.6362L17.7393 11.9375C17.8465 12.1221 17.9077 12.336 17.9077 12.565H18.5077ZM16.6518 14.4205C17.6756 14.4205 18.5082 13.5883 18.5077 12.5648L17.9077 12.5651C17.908 13.2567 17.3445 13.8205 16.6518 13.8205V14.4205ZM10.1984 14.4205H16.6518V13.8205H10.1984V14.4205ZM8.19058 16.5526L10.4105 14.3327L9.98626 13.9084L7.76631 16.1283L8.19058 16.5526ZM7.21609 16.0024L7.76631 16.5526L8.19058 16.1283L7.64035 15.5781L7.21609 16.0024ZM9.43616 13.358L7.21609 15.5781L7.64035 16.0024L9.86043 13.7823L9.43616 13.358ZM9.34829 7.96135V13.5702H9.94829V7.96135H9.34829ZM11.0788 6.0417C10.0911 6.13359 9.33168 6.98009 9.34834 7.96642L9.94825 7.95629C9.93691 7.2851 10.4576 6.70209 11.1344 6.63913L11.0788 6.0417ZM11.2062 6.03731C11.1715 6.03731 11.1376 6.03831 11.0904 6.04085L11.1227 6.63998C11.162 6.63787 11.1848 6.63731 11.2062 6.63731V6.03731ZM12.1329 6.28541C11.8538 6.12398 11.536 6.0378 11.2066 6.03731L11.2057 6.63731C11.4303 6.63765 11.6448 6.6962 11.8326 6.80481L12.1329 6.28541ZM11.6828 6.01594V6.54511H12.2828V6.01594H11.6828ZM13.4128 4.09633C12.4255 4.18823 11.6661 5.03476 11.6828 6.021L12.2827 6.01087C12.2714 5.33969 12.7921 4.75671 13.4684 4.69375L13.4128 4.09633ZM13.5406 4.09194C13.5061 4.09194 13.4717 4.09294 13.4245 4.09548L13.4568 4.69461C13.4959 4.6925 13.5192 4.69194 13.5406 4.69194V4.09194ZM14.4677 4.34178C14.1948 4.18349 13.8783 4.09243 13.5411 4.09194L13.5402 4.69194C13.7687 4.69227 13.9821 4.7537 14.1667 4.86079L14.4677 4.34178ZM14.0172 4.00481V4.60129H14.6172V4.00481H14.0172ZM14.0196 3.90365C14.0177 3.93973 14.0172 3.97419 14.0172 4.00481H14.6172C14.6172 3.97944 14.6176 3.95708 14.6187 3.93635L14.0196 3.90365ZM15.9732 2.14934C14.9446 2.09318 14.0748 2.88277 14.0196 3.90381L14.6187 3.93618C14.6562 3.24372 15.2454 2.7105 15.9405 2.74845L15.9732 2.14934ZM17.6267 3.43474C17.3885 2.74349 16.7591 2.22202 15.9845 2.15018L15.9291 2.74761C16.4634 2.79716 16.8962 3.15656 17.0595 3.63026L17.6267 3.43474ZM17.608 2.83634L17.1294 3.32192L17.5568 3.74308L18.0353 3.2575L17.608 2.83634ZM17.7757 2.68377C17.7193 2.73035 17.6644 2.77988 17.6095 2.83479L18.0338 3.25905C18.0746 3.2182 18.1154 3.18137 18.1579 3.14624L17.7757 2.68377ZM21.0742 3.00258C20.2527 2.00437 18.7734 1.86279 17.7762 2.68335L18.1574 3.14666C18.8994 2.53616 20.0005 2.64208 20.6109 3.38383L21.0742 3.00258ZM20.8805 6.1976C21.7542 5.3417 21.8411 3.97208 21.0778 3.00708L20.6072 3.37932C21.1808 4.10448 21.1144 5.12852 20.4606 5.76898L20.8805 6.1976ZM20.4423 6.63586L20.8827 6.19542L20.4584 5.77115L20.018 6.21159L20.4423 6.63586ZM21.6179 7.76982C21.5466 7.00228 21.0198 6.37501 20.3266 6.13965L20.1337 6.7078C20.6116 6.87006 20.9719 7.30268 21.0204 7.82531L21.6179 7.76982ZM20.1041 8.23424C20.0133 8.32459 19.8944 8.37378 19.7655 8.37378V8.97378C20.0529 8.97378 20.324 8.86184 20.5272 8.65962L20.1041 8.23424ZM20.2441 7.89654C20.2438 8.02522 20.1944 8.14423 20.1038 8.2345L20.5275 8.65936C20.7312 8.45625 20.8435 8.18467 20.8441 7.89785L20.2441 7.89654ZM20.243 7.86268L20.2442 7.9055L20.844 7.88889L20.8428 7.84608L20.243 7.86268ZM19.7189 7.41746C19.9927 7.41746 20.2208 7.63096 20.2442 7.8822L20.8416 7.82656C20.7888 7.25921 20.2948 6.81746 19.7189 6.81746V7.41746ZM19.6983 7.41746H19.7189V6.81746H19.6983V7.41746ZM19.3753 7.41746H19.6983V6.81746H19.3753V7.41746ZM18.7385 6.99186C18.845 7.24975 19.0972 7.41746 19.3753 7.41746V6.81746C19.3391 6.81746 19.3065 6.79529 19.2931 6.76291L18.7385 6.99186ZM18.8882 6.24114C18.6912 6.43805 18.6319 6.73434 18.7387 6.99218L19.293 6.76259C19.2792 6.72933 19.2868 6.69101 19.3124 6.6654L18.8882 6.24114ZM19.9114 5.21786L18.8882 6.24114L19.3124 6.6654L20.3357 5.64213L19.9114 5.21786ZM20.0022 3.8678C20.3222 4.273 20.2862 4.85058 19.9136 5.21572L20.3335 5.64427C20.9242 5.06543 20.984 4.14273 20.473 3.49587L20.0022 3.8678ZM18.6527 3.74703C19.0643 3.40861 19.6733 3.46908 20.0061 3.87269L20.469 3.49098C19.924 2.83005 18.937 2.73648 18.2716 3.28359L18.6527 3.74703ZM18.5839 3.80932C18.6067 3.78676 18.6296 3.76607 18.6527 3.74707L18.2717 3.28355C18.2333 3.31507 18.197 3.3481 18.1623 3.38236L18.5839 3.80932ZM17.5312 4.87756L18.5868 3.80641L18.1594 3.38527L17.1038 4.45642L17.5312 4.87756ZM16.7786 5.03143C17.0366 5.13797 17.3356 5.07725 17.5318 4.8769L17.1032 4.45708C17.0784 4.48236 17.0397 4.49013 17.0075 4.47683L16.7786 5.03143ZM16.3514 4.39422C16.3514 4.67352 16.5203 4.92565 16.7793 5.03175L17.0068 4.47652C16.9732 4.46278 16.9514 4.43011 16.9514 4.39422H16.3514ZM16.3514 4.07129V4.39422H16.9514V4.07129H16.3514ZM15.8718 3.52337C16.1439 3.54876 16.3567 3.78349 16.3515 4.06571L16.9514 4.07688C16.9624 3.48287 16.5146 2.98074 15.9276 2.92596L15.8718 3.52337ZM15.3962 3.97737C15.4104 3.70906 15.6331 3.51153 15.8845 3.52428L15.9149 2.92505C15.3228 2.89503 14.8281 3.35731 14.7971 3.9458L15.3962 3.97737ZM15.3953 4.013L15.3965 3.96982L14.7968 3.95334L14.7956 3.99653L15.3953 4.013ZM15.3955 5.95014V4.00477H14.7955V5.95014H15.3955ZM15.3955 5.95055V5.95014H14.7955V5.95055H15.3955ZM14.7064 6.63923C15.0869 6.63923 15.3947 6.33102 15.3955 5.95112L14.7955 5.94997C14.7954 5.99962 14.7553 6.03923 14.7064 6.03923V6.63923ZM14.706 6.63923H14.7064V6.03923H14.706V6.63923ZM14.0173 5.95014C14.0173 6.33018 14.3251 6.63923 14.706 6.63923V6.03923C14.6573 6.03923 14.6173 5.99963 14.6173 5.95014H14.0173ZM14.0173 5.94781V5.95014H14.6173V5.94781H14.0173ZM13.5393 5.47004C13.8028 5.47051 14.017 5.68512 14.0173 5.9481L14.6173 5.94752C14.6167 5.35371 14.1345 4.87111 13.5404 4.87004L13.5393 5.47004ZM13.5063 5.4711L13.5483 5.46992L13.5314 4.87016L13.4894 4.87134L13.5063 5.4711ZM13.0609 6.00418C13.0561 5.7272 13.2714 5.49387 13.5259 5.4699L13.4697 4.87254C12.8971 4.92646 12.4509 5.43 12.4609 6.01447L13.0609 6.00418ZM13.0609 7.89523V6.00932H12.4609V7.89523H13.0609ZM13.0609 7.8956V7.89523H12.4609V7.8956H13.0609ZM12.3718 8.58428C12.7524 8.58428 13.0602 8.27607 13.0609 7.89617L12.4609 7.89503C12.4608 7.94467 12.4208 7.98428 12.3718 7.98428V8.58428ZM12.3714 8.58428H12.3718V7.98428H12.3714V8.58428ZM11.6827 7.89519C11.6827 8.27523 11.9905 8.58428 12.3714 8.58428V7.98428C12.3227 7.98428 12.2827 7.94468 12.2827 7.89519H11.6827ZM11.6827 7.89245V7.89519H12.2827V7.89245H11.6827ZM11.2055 7.41545C11.4682 7.41568 11.6825 7.63008 11.6827 7.89274L12.2827 7.89217C12.2821 7.29885 11.8 6.81596 11.206 6.81545L11.2055 7.41545ZM11.1717 7.41652L11.2141 7.41534L11.1973 6.81557L11.1549 6.81676L11.1717 7.41652ZM10.7263 7.9496C10.7216 7.67262 10.9369 7.43928 11.1914 7.41532L11.1352 6.81796C10.5626 6.87188 10.1164 7.37542 10.1264 7.95989L10.7263 7.9496ZM10.7264 13.3428V7.95474H10.1264V13.3428H10.7264ZM16.6517 13.0428H10.4264V13.6428H16.6517V13.0428ZM17.1299 12.5647C17.1299 12.8282 16.9152 13.0428 16.6517 13.0428V13.6428C17.2466 13.6428 17.7299 13.1595 17.7299 12.5647H17.1299ZM16.6517 12.0865C16.9152 12.0865 17.1299 12.3012 17.1299 12.5647H17.7299C17.7299 11.9698 17.2466 11.4865 16.6517 11.4865V12.0865ZM15.9626 11.3974C15.9626 11.7776 16.2707 12.0865 16.6517 12.0865V11.4865C16.6024 11.4865 16.5626 11.4467 16.5626 11.3974H15.9626ZM16.6517 10.7083C16.2707 10.7083 15.9626 11.0171 15.9626 11.3974H16.5626C16.5626 11.3481 16.6024 11.3083 16.6517 11.3083V10.7083ZM18.531 10.7083H16.6517V11.3083H18.531V10.7083ZM19.0781 10.229C19.0529 10.5018 18.8214 10.7141 18.5371 10.7084L18.5249 11.3082C19.1253 11.3204 19.6215 10.8689 19.6756 10.2842L19.0781 10.229ZM18.6239 9.75273C18.8911 9.76702 19.0901 9.99671 19.0773 10.2408L19.6764 10.2724C19.7071 9.69006 19.2463 9.18516 18.6559 9.15358L18.6239 9.75273ZM18.5888 9.75185L18.6316 9.75304L18.6482 9.15327L18.6054 9.15208L18.5888 9.75185ZM17.908 9.06288C17.908 9.44313 18.216 9.75197 18.5971 9.75197V9.15197C18.5478 9.15197 18.508 9.11217 18.508 9.06288H17.908ZM18.5971 8.37378C18.216 8.37378 17.908 8.68263 17.908 9.06288H18.508C18.508 9.01359 18.5478 8.97378 18.5971 8.97378V8.37378ZM19.7643 8.37378H18.5971V8.97378H19.7643V8.37378ZM19.7655 8.37378H19.7643V8.97378H19.7655V8.37378Z" fill="#509E2F" mask="url(#path-2-outside-1)"/>
<path d="M8.78295 1.53095L8.7856 1.53469L8.78581 1.53512C9.54609 2.63251 9.27299 4.10932 8.17017 4.8983L7.75103 5.20654V5.39277C7.75103 5.39279 7.75103 5.39281 7.75103 5.39283C7.75161 6.89557 6.4567 8.1034 4.88384 8.1034C3.311 8.1034 2.01609 6.89611 2.01609 5.39331V5.20698L1.62701 4.92056L8.78295 1.53095ZM8.78295 1.53095C8.78144 1.5287 8.78013 1.52689 8.77917 1.52557L8.77893 1.52529C8.77886 1.52518 8.77878 1.52508 8.77871 1.52497C7.96415 0.376297 6.31633 0.0685309 5.10352 0.831308C5.06466 0.855192 5.0269 0.880363 4.98516 0.909647L4.98516 0.909641L4.98392 0.910529L4.87324 0.989878L4.77942 0.926261C3.726 0.00740474 2.07855 0.0462387 1.07739 1.02499C1.07741 1.02498 1.07742 1.02497 1.07743 1.02496L8.78295 1.53095ZM7.33161 3.84377L7.33162 3.84378C7.85992 3.46577 7.98291 2.77554 7.62889 2.2651C7.44205 2.00257 7.15675 1.82221 6.8229 1.75949C6.48847 1.69734 6.15063 1.75964 5.86893 1.93599L5.29998 2.33916C5.29988 2.33924 5.29978 2.33931 5.29968 2.33938C5.05825 2.51202 4.72738 2.51576 4.48201 2.34892M7.33161 3.84377L2.06976 1.9507C2.31625 1.70985 2.64783 1.58688 2.98242 1.58688C3.30128 1.58688 3.61831 1.69822 3.86258 1.92056L3.86257 1.92057L3.86403 1.92186C3.88558 1.94097 3.91043 1.96136 3.93878 1.98046L3.93859 1.98034L4.02279 1.85621L3.93902 1.98063L4.48201 2.34892M7.33161 3.84377L7.33 3.84496M7.33161 3.84377L7.33 3.84496M4.48201 2.34892L4.56634 2.2249L4.48216 2.34901L4.48201 2.34892ZM7.33 3.84496L6.63426 4.35698C6.63426 4.35698 6.63425 4.35698 6.63425 4.35699C6.46601 4.48079 6.36441 4.6738 6.36441 4.88128V5.39331C6.36441 6.14901 5.70853 6.77934 4.88378 6.77934C4.05903 6.77934 3.40315 6.14901 3.40315 5.39331V4.88128C3.40315 4.67418 3.30243 4.48098 3.13325 4.35694C3.13318 4.35689 3.13311 4.35684 3.13305 4.3568L2.43821 3.84544C2.4381 3.84536 2.43799 3.84527 2.43788 3.84519C2.4105 3.82484 2.38198 3.80731 2.35413 3.79228L2.3538 3.79211M7.33 3.84496L2.3538 3.79211M2.3538 3.79211C2.26222 3.74301 2.17783 3.68358 2.10245 3.61481L2.1022 3.61458M2.3538 3.79211L2.1022 3.61458M2.1022 3.61458C1.85992 3.39454 1.72539 3.1014 1.71917 2.78871M2.1022 3.61458L1.71917 2.78871M1.71917 2.78871C1.71296 2.47627 1.83628 2.17887 2.06975 1.9507L1.71917 2.78871ZM0.332167 2.81315C0.345498 3.48506 0.635519 4.11042 1.14496 4.57344L1.07735 1.02503C0.58517 1.50558 0.318832 2.14104 0.332167 2.81315ZM8.77408 1.519C8.77377 1.51862 8.77408 1.51899 8.77474 1.51982L8.77408 1.519Z" fill="#509E2F" stroke="#509E2F" stroke-width="0.3"/>
<path d="M25.9489 10.9572C23.8885 10.9572 22.2118 12.6334 22.2118 14.6943C22.2118 16.7551 23.8885 18.4313 25.9489 18.4313C28.0092 18.4313 29.686 16.7551 29.686 14.6943C29.686 12.6334 28.0092 10.9572 25.9489 10.9572ZM25.9489 17.107C24.6189 17.107 23.5367 16.0243 23.5367 14.6947C23.5367 13.3648 24.6189 12.2825 25.9489 12.2825C27.2789 12.2825 28.3611 13.3648 28.3611 14.6947C28.3611 16.0247 27.2789 17.107 25.9489 17.107Z" fill="#509E2F" stroke="#509E2F" stroke-width="0.3"/>
</svg>
